<svg width="508" height="492" viewBox="0 0 508 492" fill="none" xmlns="http://www.w3.org/2000/svg">
<path d="M317.69 84.51C317.69 130.764 287.413 168.264 250.069 168.264C212.721 168.264 182.448 130.764 182.448 84.51C182.448 38.252 212.721 0.751953 250.069 0.751953C287.413 0.751953 317.69 38.252 317.69 84.51Z" fill="black"/>
<path d="M490.701 191.62C465.228 230.237 419.306 244.843 388.161 224.276C357.005 203.71 352.384 155.745 377.88 117.146C403.341 78.5559 449.259 63.9309 480.42 84.5049C511.568 105.048 516.186 153.028 490.701 191.615V191.62Z" fill="black"/>
<path d="M17.3104 180.93C42.7754 219.547 88.6974 234.145 119.85 213.586C151.006 193.02 155.627 145.055 130.127 106.456C104.662 67.8659 58.7484 53.241 27.5874 73.815C-3.56464 94.358 -8.18964 142.335 17.3104 180.925V180.93Z" fill="black"/>
<path d="M434.87 421.53C448.28 351.284 398.136 291.96 342.694 260.57C313.315 243.875 283.264 229.183 248.538 229.847C210.464 230.519 171.061 253.226 141.678 274.597C95.5961 308.659 45.5061 394.817 85.5801 448.907C103.611 472.954 141.678 494.989 173.072 490.317C205.131 485.641 231.845 448.907 264.576 452.911C296.631 456.923 321.334 486.973 352.728 490.977C382.013 494.782 429.181 451.243 434.873 421.528L434.87 421.53Z" fill="black"/>
</svg>